HIERARCHY
ROOT Hips
{
	OFFSET 0.000000 0.000000 0.000000 
	CHANNELS 6 Xposition Yposition Zposition Zrotation Yrotation Xrotation
	JOINT LeftUpLeg
	{
		OFFSET 1.363060 -1.794630 0.839290 
		CHANNELS 3 Zrotation Yrotation Xrotation
		JOINT LeftLeg
		{
			OFFSET 2.448110 -6.726130 0.000000 
			CHANNELS 3 Zrotation Yrotation Xrotation
			JOINT LeftFoot
			{
				OFFSET 2.562200 -7.039590 0.000000 
				CHANNELS 3 Zrotation Yrotation Xrotation
				JOINT LeftToeBase
				{
					OFFSET 0.157640 -0.433110 2.322550 
					CHANNELS 3 Zrotation Yrotation Xrotation
					End Site
					{
						OFFSET 0.000000 0.000000 0.000000 
					}
				}
			}
		}
	}
	JOINT RightUpLeg
	{
		OFFSET -1.305520 -1.794630 0.839290 
		CHANNELS 3 Zrotation Yrotation Xrotation
		JOINT RightLeg
		{
			OFFSET -2.542530 -6.985550 0.000000 
			CHANNELS 3 Zrotation Yrotation Xrotation
			JOINT RightFoot
			{
				OFFSET -2.568260 -7.056230 0.000000 
				CHANNELS 3 Zrotation Yrotation Xrotation
				JOINT RightToeBase
				{
					OFFSET -0.164730 -0.452590 2.363150 
					CHANNELS 3 Zrotation Yrotation Xrotation
					End Site
					{
						OFFSET 0.000000 0.000000 0.000000 
					}
				}
			}
		}
	}
	JOINT Spine
	{
		OFFSET 0.028270 2.035590 -0.193380 
		CHANNELS 3 Zrotation Yrotation Xrotation
		JOINT Spine1
		{
			OFFSET 0.056720 2.048850 -0.042750 
			CHANNELS 3 Zrotation Yrotation Xrotation
			JOINT Neck1
			{
				OFFSET -0.054170 1.746240 0.172020 
				CHANNELS 3 Zrotation Yrotation Xrotation
				JOINT Head
				{
					OFFSET 0.104070 1.761360 -0.123970 
					CHANNELS 3 Zrotation Yrotation Xrotation
					End Site
					{
						OFFSET 0.000000 0.000000 0.000000 
					}
				}
			}
			JOINT LeftArm
			{
				OFFSET 3.362410 1.200890 -0.311210 
				CHANNELS 3 Zrotation Yrotation Xrotation
				JOINT LeftForeArm
				{
					OFFSET 4.983000 -0.000000 -0.000000 
					CHANNELS 3 Zrotation Yrotation Xrotation
					JOINT LeftHand
					{
						OFFSET 3.483560 -0.000000 -0.000000 
						CHANNELS 3 Zrotation Yrotation Xrotation
						JOINT LeftHandIndex1
						{
							OFFSET 0.715260 -0.000000 -0.000000 
							CHANNELS 3 Zrotation Yrotation Xrotation
							End Site
							{
								OFFSET 0.000000 0.000000 0.000000 
							}
						}
					}
				}
			}
			JOINT RightArm
			{
				OFFSET -3.136600 1.374050 -0.404650 
				CHANNELS 3 Zrotation Yrotation Xrotation
				JOINT RightForeArm
				{
					OFFSET -5.241900 -0.000000 -0.000000 
					CHANNELS 3 Zrotation Yrotation Xrotation
					JOINT RightHand
					{
						OFFSET -3.444170 -0.000000 -0.000000 
						CHANNELS 3 Zrotation Yrotation Xrotation
						JOINT RightHandIndex1
						{
							OFFSET -0.622530 -0.000000 -0.000000 
							CHANNELS 3 Zrotation Yrotation Xrotation
							End Site
							{
								OFFSET 0.000000 0.000000 0.000000 
							}
						}
					}
				}
			}
		}
	}
}
MOTION
Frames: 9
Frame Time: 0.041667
-5.116706 17.340633 0.279415 23.915397 -81.692553 -23.092630 -23.975373 2.179109 -1.504305 12.560284 14.796213 68.364140 -0.133227 8.121971 23.039281 3.364300 -11.262600 -33.170900 30.108993 2.102049 -9.195041 -12.120337 -15.735963 67.434682 1.609248 -12.974178 15.195226 -0.817900 -5.770700 16.120600 0.964723 1.375902 -4.947840 -1.537664 0.988879 -8.169651 4.770939 1.743925 23.438048 5.628900 -1.725000 11.012100 56.847483 -36.038622 -96.654375 14.151752 -25.258950 -3.812124 0.067469 -1.183265 27.881543 -7.125000 0.000000 0.000000 -61.684538 28.994227 -111.248693 -7.059011 25.441351 -4.180776 -1.375639 -0.795894 19.611648 7.125000 0.000000 0.000000 
-5.449301 17.352829 0.309740 31.091091 -80.981829 -31.560231 -25.216396 2.740442 -0.383854 12.547902 14.678584 68.371915 -0.211748 8.141382 22.431818 3.199100 -11.010600 -32.315800 28.302483 1.504827 -9.134619 -13.191390 -15.960650 69.543199 1.617580 -18.090654 20.676262 -1.010700 -6.396700 17.939800 0.855674 1.426048 -4.834154 -1.464988 1.094121 -7.990568 4.736990 1.700925 23.629254 5.575200 -1.747500 11.168600 57.305994 -35.801089 -97.967795 14.168541 -25.448730 -3.867743 0.088651 -1.205599 28.094724 -7.125000 0.000000 0.000000 -61.773611 28.676918 -111.314752 -7.152214 25.590928 -4.251427 -1.383419 -0.733073 19.611111 7.125000 0.000000 0.000000 
-5.764425 17.368431 0.322376 27.290917 -81.264675 -28.458747 -24.257432 2.903079 -0.910655 12.845600 14.815708 69.540207 -0.184174 7.234291 21.545399 3.203800 -11.017900 -32.340400 29.097837 1.661508 -9.233853 -14.020525 -16.176458 71.082091 1.569766 -23.393432 24.818513 -0.958700 -6.234700 17.467000 0.895520 1.515225 -4.809296 -1.557461 1.109792 -7.917470 4.700830 1.764958 23.843521 5.605000 -1.780800 11.290900 57.276657 -35.681670 -98.738668 14.430193 -25.757716 -3.997739 0.099694 -1.217256 28.084063 -7.125000 0.000000 0.000000 -62.320061 28.508286 -112.920912 -6.874899 25.410290 -4.154475 -1.464332 -0.799901 20.429966 7.125000 0.000000 0.000000 
-6.058014 17.376452 0.321827 17.391568 -81.857079 -18.870865 -22.196824 2.883201 -2.314465 13.178325 15.045675 70.762211 -0.134666 6.386056 20.812409 2.802600 -10.368400 -30.178300 31.134750 2.287668 -9.502897 -14.672583 -16.403256 72.687185 1.664474 -27.052701 26.432573 -0.724900 -5.440300 15.168800 0.854781 1.889301 -4.806623 -2.461692 1.187060 -7.580776 5.592612 1.872853 24.220839 6.435800 -1.887500 11.848000 58.302801 -35.814526 -99.870823 14.847984 -26.368636 -4.190785 0.132895 -1.200809 27.668524 -7.125000 0.000000 0.000000 -61.635685 27.736696 -113.395590 -6.711631 25.119306 -4.104859 -1.593096 -0.835951 21.127229 7.125000 0.000000 0.000000 
-6.339187 17.367223 0.322706 11.917474 -82.093141 -13.743584 -20.956840 2.976077 -3.606919 13.531321 15.288664 72.083146 -0.082205 5.495326 19.996776 2.447700 -9.742200 -28.145700 32.197267 2.727464 -9.836665 -15.185412 -16.587074 74.375596 1.781199 -27.907181 26.154867 -0.637800 -5.109700 14.221700 0.806492 2.313332 -4.649768 -3.566294 1.332182 -7.099332 4.307164 0.200555 23.702992 4.842200 -2.115300 11.550700 60.291135 -35.471272 -102.247411 14.747815 -26.875557 -4.271103 0.205627 -1.223416 27.684421 -7.125000 0.000000 0.000000 -60.374764 26.440711 -112.666887 -6.861432 24.999010 -4.176295 -1.748369 -0.775038 21.207130 7.125000 0.000000 0.000000 
-6.624755 17.356015 0.325453 13.109778 -82.084791 -15.665613 -20.773494 3.191959 -4.255982 13.812415 15.433763 73.254067 -0.022823 4.186954 18.804742 3.330700 -11.212100 -32.998600 32.063489 2.776883 -10.089186 -15.669951 -16.705663 76.209994 1.930130 -27.118783 24.673176 -0.811600 -5.748900 16.057600 0.828513 2.206683 -4.671738 -3.262277 1.292117 -7.534759 4.348080 0.463645 23.198967 5.020500 -2.052200 10.931100 60.320892 -35.326095 -103.285962 14.562197 -26.689179 -4.203900 0.204484 -1.225472 28.662243 -7.125000 0.000000 0.000000 -60.718358 26.427062 -112.361320 -6.951348 25.218073 -4.225206 -1.759035 -0.765618 20.252589 7.125000 0.000000 0.000000 
-6.925156 17.354697 0.331056 16.648842 -82.050118 -20.170910 -21.110601 3.463805 -4.310815 14.015315 15.494905 74.119762 0.099075 2.910240 18.421696 3.274700 -11.126900 -32.709200 31.464790 2.663884 -10.160881 -16.137308 -16.774287 78.030749 2.136110 -26.072346 22.628726 -1.279300 -7.168000 20.213900 0.669085 2.628830 -4.542681 -4.023777 1.517180 -7.239418 4.444981 -0.013897 23.393811 4.986000 -2.210500 11.319100 61.584299 -35.258899 -105.485058 14.489678 -26.901529 -4.222766 0.233172 -1.220381 28.904000 -7.125000 0.000000 0.000000 -59.562033 25.144399 -110.606228 -7.083937 25.147654 -4.282080 -1.844696 -0.717071 19.056840 7.125000 0.000000 0.000000 
-7.227644 17.356455 0.343363 17.897477 -81.953606 -22.165218 -21.217047 3.570477 -4.723842 14.192991 15.579687 74.865281 0.196648 1.809539 18.043455 4.972900 -13.353200 -40.705400 31.242244 2.736282 -10.645746 -16.585950 -16.891904 79.790526 2.203772 -24.825213 21.000619 -2.370000 -9.597600 27.683300 0.696930 2.423293 -4.575661 -3.603978 1.433347 -7.458411 5.026855 0.942236 23.806362 5.667700 -2.038000 11.317400 60.495638 -35.163239 -104.671955 14.718919 -26.854281 -4.262791 0.190242 -1.237389 28.417011 -7.125000 0.000000 0.000000 -60.306762 25.450141 -111.080325 -7.116066 25.379334 -4.309114 -1.848601 -0.754335 18.264345 7.125000 0.000000 0.000000 
-7.526287 17.363487 0.359295 18.664825 -81.681239 -23.587335 -21.340329 3.420491 -5.273620 14.391795 15.695916 75.562936 0.271018 1.481683 18.449016 1.154600 -6.822300 -19.189900 31.129138 2.716351 -11.394711 -17.052351 -17.034359 81.489277 2.128498 -23.770632 20.276705 -4.218200 -12.445200 37.325600 0.821879 1.972898 -4.530011 -2.714903 1.278152 -7.231976 4.833126 1.678764 24.443458 5.501400 -1.778300 11.573500 59.442743 -34.404096 -104.080160 14.757628 -26.776561 -4.287892 0.172177 -1.249436 28.027264 -7.125000 0.000000 0.000000 -61.356994 25.614797 -112.166406 -7.232485 25.709729 -4.369710 -1.842647 -0.779286 17.900469 7.125000 0.000000 0.000000 
